<?xml version="1.0" ?><svg style="enable-background:new 0 0 512 512;" version="1.1" viewBox="0 0 512 512" xml:space="preserve" xmlns="http://www.w3.org/2000/svg" xmlns:xlink="http://www.w3.org/1999/xlink"><style type="text/css">
	.st0{display:none;}
	.st1{fill:#DEFFFE;}
	.st2{fill:#004358;}
	.st3{fill:#04BFBF;}
	.st4{fill:#BEDB39;}
</style><g id="Layer_1"/><g class="st0" id="Layer_3"/><g class="st0" id="Layer_5"/><g id="Layer_4"><g><path class="st1" d="M34.322,337.366c9.66-0.771,21.995-3.09,28.876-9.602c12.085,12.006,30.614,15.255,47.146,15.254    c7.58,0,14.739-0.684,20.661-1.521l-0.643-14.432c-5.795,0.795-12.711,1.431-20.018,1.431c-16.531,0-35.061-3.249-47.146-15.254    c-6.906,6.536-19.307,8.848-28.983,9.611L34.322,337.366z"/><rect class="st1" height="24.828" width="397.084" x="87.61" y="78.065"/><rect class="st1" height="16.828" width="370.957" x="129" y="370.246"/><g><g><path class="st3" d="M87.61,254.93c-2.761,0-5-2.239-5-5V77.073c0-2.761,2.239-5,5-5s5,2.239,5,5V249.93      C92.61,252.691,90.371,254.93,87.61,254.93z"/></g><g><path class="st3" d="M484.694,352.076c-2.762,0-5-2.239-5-5V77.073c0-2.761,2.238-5,5-5s5,2.239,5,5v270.003      C489.694,349.837,487.456,352.076,484.694,352.076z"/></g></g><g><path class="st2" d="M156.069,450.604c-4.246-21.773-21.638-38.287-42.929-41.939c14.172-9.638,23.501-25.892,23.501-44.285     v-37.966c0-2.761-2.239-5-5-5s-5,2.239-5,5v37.966c0,23.998-19.524,43.521-43.522,43.521s-43.521-19.523-43.521-43.521v-42.036     c0-2.761-2.239-5-5-5s-5,2.239-5,5v42.036c0,18.394,9.329,34.647,23.501,44.285c-21.291,3.653-38.683,20.166-42.929,41.939     l-4.441,22.774c-0.286,1.466,0.099,2.983,1.049,4.136c0.95,1.153,2.365,1.821,3.859,1.821h144.966     c1.494,0,2.909-0.668,3.859-1.821c0.95-1.153,1.334-2.67,1.049-4.136L156.069,450.604z"/><path class="st2" d="M493.363,32.664H78.941c-7.168,0-13,5.832-13,13v23.409c0,7.168,5.832,13,13,13h414.422     c7.168,0,13-5.832,13-13V45.664C506.363,38.496,500.531,32.664,493.363,32.664z M496.363,69.073c0,1.654-1.346,3-3,3H78.941     c-1.654,0-3-1.346-3-3V45.664c0-1.654,1.346-3,3-3h414.422c1.654,0,3,1.346,3,3V69.073z"/><path class="st2" d="M199.479,288.97c1.513,0.752,3.136,1.123,4.749,1.123c2.268,0,4.515-0.732,6.41-2.167l19.504-14.763h124.51     c11.579,0,21-9.42,21-21v-97.108c0-11.58-9.421-21-21-21H206.785c-11.58,0-21,9.42-21,21v97.108     c0,6.439,2.866,12.35,7.791,16.311v10.968C193.576,283.509,195.837,287.16,199.479,288.97z"/><path class="st2" d="M286.152,424.357c-13.546,0-24.565,11.02-24.565,24.565c0,13.545,11.02,24.565,24.565,24.565     s24.565-11.02,24.565-24.565C310.718,435.377,299.698,424.357,286.152,424.357z M286.152,463.488     c-8.031,0-14.565-6.534-14.565-14.565s6.534-14.565,14.565-14.565s14.565,6.534,14.565,14.565S294.184,463.488,286.152,463.488z"/><path class="st2" d="M493.363,342.076H146.739c-2.761,0-5,2.239-5,5s2.239,5,5,5h346.624c1.654,0,3,1.346,3,3v23.41     c0,1.654-1.346,3-3,3H142.565c-2.761,0-5,2.239-5,5s2.239,5,5,5h138.587v18.949c0,2.761,2.238,5,5,5s5-2.239,5-5v-18.949h202.211     c7.168,0,13-5.832,13-13v-23.41C506.363,347.908,500.531,342.076,493.363,342.076z"/></g><g><g><path class="st4" d="M335.91,189.751H225.526c-2.761,0-5-2.239-5-5s2.239-5,5-5H335.91c2.762,0,5,2.239,5,5      S338.672,189.751,335.91,189.751z"/></g><g><path class="st4" d="M285.917,227.469h-60.391c-2.761,0-5-2.239-5-5s2.239-5,5-5h60.391c2.762,0,5,2.239,5,5      S288.679,227.469,285.917,227.469z"/></g><g><path class="st4" d="M335.91,227.469h-19.754c-2.762,0-5-2.239-5-5s2.238-5,5-5h19.754c2.762,0,5,2.239,5,5      S338.672,227.469,335.91,227.469z"/></g></g><path class="st4" d="M144.275,264.786c-9.287-13.581-23.544-21.51-39.116-21.753c-26.549-0.417-38.854,11.19-43.729,17.854    c-9.57-4.158-32.519-11.709-43.968,5.213c-13.229,19.558-1.124,56.557-0.602,58.122c0.651,1.955,2.436,3.31,4.494,3.413    c3.531,0.177,30.752,1.151,42.384-9.856c12.084,12.006,30.614,15.255,47.146,15.254c18.712-0.001,34.861-4.167,36.175-4.515    c1.57-0.416,2.841-1.569,3.406-3.092C158.239,304.492,155.925,281.823,144.275,264.786z"/></g></g></svg>